<svg width="206" height="70" viewBox="0 0 2056 1521" fill="none" xmlns="http://www.w3.org/2000/svg">
<path d="M161.703 1283L46.4629 998.34H81.7229L180.193 1246.45L278.663 998.34H313.923L198.683 1283H161.703ZM297.996 1283L418.826 998.34H459.246L580.076 1283H544.386L509.556 1200.44H368.516L333.686 1283H297.996ZM380.986 1170.77H497.086L439.036 1031.88L380.986 1170.77ZM616.243 1283V998.34H648.493V1252.04H803.723V1283H616.243ZM845.52 1283V998.34H877.77V1146.69L1036.01 998.34H1081.59L960.33 1112.72L1088.47 1283H1048.05L936.68 1134.65L877.77 1189.69V1283H845.52ZM1206.99 1283V1170.34L1087.45 998.34H1126.58L1222.9 1136.8L1319.22 998.34H1358.35L1239.24 1170.34V1283H1206.99ZM1394.36 1283V998.34H1530.67C1559.91 998.34 1583.13 1006.37 1600.33 1022.42C1617.82 1038.47 1626.56 1060.12 1626.56 1087.35C1626.56 1105.7 1622.98 1120.32 1615.81 1131.21C1608.93 1142.1 1600.18 1150.42 1589.58 1156.15C1578.97 1161.6 1568.36 1165.61 1557.76 1168.19L1632.58 1283H1594.31L1525.51 1173.78H1426.61V1283H1394.36ZM1426.61 1143.25H1525.08C1535.4 1143.25 1545.86 1141.67 1556.47 1138.52C1567.08 1135.37 1575.96 1129.78 1583.13 1121.75C1590.58 1113.44 1594.31 1101.97 1594.31 1087.35C1594.31 1069.29 1588.14 1055.1 1575.82 1044.78C1563.49 1034.17 1547.15 1028.87 1526.8 1028.87H1426.61V1143.25ZM1682 1283V998.34H1714.25V1283H1682ZM1784.05 1283V998.34H1993.46V1029.3H1816.3V1124.76H1974.54V1156.15H1816.3V1252.04H1993.46V1283H1784.05Z" fill="black"/>
<path d="M81.0755 1486V1393.32H91.5755V1434.48H145.476V1393.32H155.976V1486H145.476V1444.7H91.5755V1486H81.0755ZM232.453 1487.12C225.453 1487.12 219.059 1485.91 213.273 1483.48C207.486 1481.05 202.493 1477.65 198.293 1473.26C194.186 1468.87 191.013 1463.83 188.773 1458.14C186.533 1452.35 185.413 1446.19 185.413 1439.66C185.413 1433.03 186.533 1426.87 188.773 1421.18C191.013 1415.49 194.186 1410.45 198.293 1406.06C202.493 1401.67 207.486 1398.27 213.273 1395.84C219.059 1393.41 225.453 1392.2 232.453 1392.2C239.453 1392.2 245.846 1393.41 251.633 1395.84C257.419 1398.27 262.366 1401.67 266.473 1406.06C270.673 1410.45 273.893 1415.49 276.133 1421.18C278.373 1426.87 279.493 1433.03 279.493 1439.66C279.493 1446.19 278.373 1452.35 276.133 1458.14C273.893 1463.83 270.673 1468.87 266.473 1473.26C262.366 1477.65 257.419 1481.05 251.633 1483.48C245.846 1485.91 239.453 1487.12 232.453 1487.12ZM232.453 1476.9C240.013 1476.9 246.499 1475.27 251.913 1472C257.419 1468.64 261.619 1464.16 264.513 1458.56C267.499 1452.87 268.993 1446.57 268.993 1439.66C268.993 1432.66 267.499 1426.36 264.513 1420.76C261.619 1415.16 257.419 1410.73 251.913 1407.46C246.499 1404.1 240.013 1402.42 232.453 1402.42C224.986 1402.42 218.499 1404.1 212.993 1407.46C207.486 1410.73 203.239 1415.16 200.253 1420.76C197.359 1426.36 195.913 1432.66 195.913 1439.66C195.913 1446.57 197.359 1452.87 200.253 1458.56C203.239 1464.16 207.486 1468.64 212.993 1472C218.499 1475.27 224.986 1476.9 232.453 1476.9ZM308.893 1486V1393.32H321.073L354.253 1437.28L386.873 1393.32H399.053V1486H388.553V1409.28L354.253 1453.38L319.393 1409.28V1486H308.893ZM434.286 1486V1393.32H502.466V1403.4H444.786V1434.48H496.306V1444.7H444.786V1475.92H502.466V1486H434.286ZM565.241 1487.12C556.095 1487.12 548.675 1485.91 542.981 1483.48C537.288 1480.96 532.995 1477.51 530.101 1473.12C527.301 1468.73 525.668 1463.79 525.201 1458.28H536.121C536.401 1462.76 537.895 1466.4 540.601 1469.2C543.308 1471.91 546.855 1473.91 551.241 1475.22C555.721 1476.53 560.621 1477.18 565.941 1477.18C573.781 1477.18 579.988 1475.83 584.561 1473.12C589.135 1470.32 591.421 1466.21 591.421 1460.8C591.421 1457.53 590.255 1454.92 587.921 1452.96C585.681 1450.91 582.648 1449.23 578.821 1447.92C575.088 1446.61 570.981 1445.45 566.501 1444.42C562.021 1443.3 557.495 1442.13 552.921 1440.92C548.441 1439.71 544.288 1438.17 540.461 1436.3C536.728 1434.43 533.695 1432.05 531.361 1429.16C529.121 1426.17 528.001 1422.39 528.001 1417.82C528.001 1410.26 530.895 1404.1 536.681 1399.34C542.561 1394.58 551.288 1392.2 562.861 1392.2C571.075 1392.2 577.841 1393.46 583.161 1395.98C588.481 1398.41 592.448 1401.63 595.061 1405.64C597.768 1409.65 599.261 1413.99 599.541 1418.66H588.761C588.201 1413.99 585.868 1410.07 581.761 1406.9C577.655 1403.63 571.355 1402 562.861 1402C557.635 1402 553.388 1402.51 550.121 1403.54C546.855 1404.57 544.335 1405.92 542.561 1407.6C540.881 1409.19 539.715 1410.87 539.061 1412.64C538.501 1414.41 538.221 1416.09 538.221 1417.68C538.221 1420.76 539.341 1423.28 541.581 1425.24C543.915 1427.11 546.948 1428.69 550.681 1430C554.508 1431.21 558.708 1432.33 563.281 1433.36C567.855 1434.39 572.381 1435.55 576.861 1436.86C581.435 1438.07 585.588 1439.66 589.321 1441.62C593.148 1443.49 596.181 1445.91 598.421 1448.9C600.755 1451.89 601.921 1455.71 601.921 1460.38C601.921 1468.97 598.655 1475.59 592.121 1480.26C585.588 1484.83 576.628 1487.12 565.241 1487.12ZM662.279 1486L701.619 1393.32H714.779L754.119 1486H742.499L731.159 1459.12H685.239L673.899 1486H662.279ZM689.299 1449.46H727.099L708.199 1404.24L689.299 1449.46ZM778.494 1486V1393.32H790.674L847.934 1471.3V1393.32H858.434V1486H846.254L788.994 1407.74V1486H778.494ZM893.77 1486V1393.32H932.83C938.337 1393.32 943.61 1394.39 948.65 1396.54C953.783 1398.59 958.357 1401.63 962.37 1405.64C966.383 1409.65 969.557 1414.51 971.89 1420.2C974.223 1425.89 975.39 1432.38 975.39 1439.66C975.39 1446.94 974.223 1453.43 971.89 1459.12C969.557 1464.81 966.383 1469.67 962.37 1473.68C958.357 1477.69 953.783 1480.77 948.65 1482.92C943.61 1484.97 938.337 1486 932.83 1486H893.77ZM904.27 1476.06H932.41C939.037 1476.06 944.777 1474.38 949.63 1471.02C954.483 1467.66 958.217 1463.23 960.83 1457.72C963.537 1452.21 964.89 1446.19 964.89 1439.66C964.89 1433.03 963.537 1426.97 960.83 1421.46C958.217 1415.95 954.483 1411.57 949.63 1408.3C944.777 1404.94 939.037 1403.26 932.41 1403.26H904.27V1476.06ZM1047.21 1486V1393.32H1088.93C1098.83 1393.32 1106.62 1396.03 1112.31 1401.44C1118.01 1406.76 1120.85 1413.99 1120.85 1423.14C1120.85 1432.29 1118.01 1439.57 1112.31 1444.98C1106.62 1450.3 1098.83 1452.96 1088.93 1452.96H1057.71V1486H1047.21ZM1057.71 1443.16H1088.23C1095.51 1443.16 1101.02 1441.39 1104.75 1437.84C1108.49 1434.29 1110.35 1429.39 1110.35 1423.14C1110.35 1416.98 1108.49 1412.13 1104.75 1408.58C1101.02 1405.03 1095.51 1403.26 1088.23 1403.26H1057.71V1443.16ZM1147.72 1486V1393.32H1192.1C1201.62 1393.32 1209.18 1395.93 1214.78 1401.16C1220.48 1406.39 1223.32 1413.43 1223.32 1422.3C1223.32 1428.27 1222.16 1433.03 1219.82 1436.58C1217.58 1440.13 1214.74 1442.83 1211.28 1444.7C1207.83 1446.47 1204.38 1447.78 1200.92 1448.62L1225.28 1486H1212.82L1190.42 1450.44H1158.22V1486H1147.72ZM1158.22 1440.5H1190.28C1193.64 1440.5 1197.05 1439.99 1200.5 1438.96C1203.96 1437.93 1206.85 1436.11 1209.18 1433.5C1211.61 1430.79 1212.82 1427.06 1212.82 1422.3C1212.82 1416.42 1210.82 1411.8 1206.8 1408.44C1202.79 1404.99 1197.47 1403.26 1190.84 1403.26H1158.22V1440.5ZM1295.13 1487.12C1288.13 1487.12 1281.74 1485.91 1275.95 1483.48C1270.17 1481.05 1265.17 1477.65 1260.97 1473.26C1256.87 1468.87 1253.69 1463.83 1251.45 1458.14C1249.21 1452.35 1248.09 1446.19 1248.09 1439.66C1248.09 1433.03 1249.21 1426.87 1251.45 1421.18C1253.69 1415.49 1256.87 1410.45 1260.97 1406.06C1265.17 1401.67 1270.17 1398.27 1275.95 1395.84C1281.74 1393.41 1288.13 1392.2 1295.13 1392.2C1302.13 1392.2 1308.53 1393.41 1314.31 1395.84C1320.1 1398.27 1325.05 1401.67 1329.15 1406.06C1333.35 1410.45 1336.57 1415.49 1338.81 1421.18C1341.05 1426.87 1342.17 1433.03 1342.17 1439.66C1342.17 1446.19 1341.05 1452.35 1338.81 1458.14C1336.57 1463.83 1333.35 1468.87 1329.15 1473.26C1325.05 1477.65 1320.1 1481.05 1314.31 1483.48C1308.53 1485.91 1302.13 1487.12 1295.13 1487.12ZM1295.13 1476.9C1302.69 1476.9 1309.18 1475.27 1314.59 1472C1320.1 1468.64 1324.3 1464.16 1327.19 1458.56C1330.18 1452.87 1331.67 1446.57 1331.67 1439.66C1331.67 1432.66 1330.18 1426.36 1327.19 1420.76C1324.3 1415.16 1320.1 1410.73 1314.59 1407.46C1309.18 1404.1 1302.69 1402.42 1295.13 1402.42C1287.67 1402.42 1281.18 1404.1 1275.67 1407.46C1270.17 1410.73 1265.92 1415.16 1262.93 1420.76C1260.04 1426.36 1258.59 1432.66 1258.59 1439.66C1258.59 1446.57 1260.04 1452.87 1262.93 1458.56C1265.92 1464.16 1270.17 1468.64 1275.67 1472C1281.18 1475.27 1287.67 1476.9 1295.13 1476.9ZM1371.57 1486V1393.32H1413.29C1423.19 1393.32 1430.98 1396.03 1436.67 1401.44C1442.37 1406.76 1445.21 1413.99 1445.21 1423.14C1445.21 1432.29 1442.37 1439.57 1436.67 1444.98C1430.98 1450.3 1423.19 1452.96 1413.29 1452.96H1382.07V1486H1371.57ZM1382.07 1443.16H1412.59C1419.87 1443.16 1425.38 1441.39 1429.11 1437.84C1432.85 1434.29 1434.71 1429.39 1434.71 1423.14C1434.71 1416.98 1432.85 1412.13 1429.11 1408.58C1425.38 1405.03 1419.87 1403.26 1412.59 1403.26H1382.07V1443.16ZM1472.08 1486V1393.32H1540.26V1403.4H1482.58V1434.48H1534.1V1444.7H1482.58V1475.92H1540.26V1486H1472.08ZM1569.86 1486V1393.32H1614.24C1623.76 1393.32 1631.32 1395.93 1636.92 1401.16C1642.61 1406.39 1645.46 1413.43 1645.46 1422.3C1645.46 1428.27 1644.29 1433.03 1641.96 1436.58C1639.72 1440.13 1636.87 1442.83 1633.42 1444.7C1629.97 1446.47 1626.51 1447.78 1623.06 1448.62L1647.42 1486H1634.96L1612.56 1450.44H1580.36V1486H1569.86ZM1580.36 1440.5H1612.42C1615.78 1440.5 1619.19 1439.99 1622.64 1438.96C1626.09 1437.93 1628.99 1436.11 1631.32 1433.5C1633.75 1430.79 1634.96 1427.06 1634.96 1422.3C1634.96 1416.42 1632.95 1411.8 1628.94 1408.44C1624.93 1404.99 1619.61 1403.26 1612.98 1403.26H1580.36V1440.5ZM1699.07 1486V1403.26H1666.73V1393.32H1741.91V1403.26H1709.57V1486H1699.07ZM1767.87 1486V1393.32H1778.37V1486H1767.87ZM1813.7 1486V1393.32H1881.88V1403.4H1824.2V1434.48H1875.72V1444.7H1824.2V1475.92H1881.88V1486H1813.7ZM1944.65 1487.12C1935.5 1487.12 1928.08 1485.91 1922.39 1483.48C1916.7 1480.96 1912.4 1477.51 1909.51 1473.12C1906.71 1468.73 1905.08 1463.79 1904.61 1458.28H1915.53C1915.81 1462.76 1917.3 1466.4 1920.01 1469.2C1922.72 1471.91 1926.26 1473.91 1930.65 1475.22C1935.13 1476.53 1940.03 1477.18 1945.35 1477.18C1953.19 1477.18 1959.4 1475.83 1963.97 1473.12C1968.54 1470.32 1970.83 1466.21 1970.83 1460.8C1970.83 1457.53 1969.66 1454.92 1967.33 1452.96C1965.09 1450.91 1962.06 1449.23 1958.23 1447.92C1954.5 1446.61 1950.39 1445.45 1945.91 1444.42C1941.43 1443.3 1936.9 1442.13 1932.33 1440.92C1927.85 1439.71 1923.7 1438.17 1919.87 1436.3C1916.14 1434.43 1913.1 1432.05 1910.77 1429.16C1908.53 1426.17 1907.41 1422.39 1907.41 1417.82C1907.41 1410.26 1910.3 1404.1 1916.09 1399.34C1921.97 1394.58 1930.7 1392.2 1942.27 1392.2C1950.48 1392.2 1957.25 1393.46 1962.57 1395.98C1967.89 1398.41 1971.86 1401.63 1974.47 1405.64C1977.18 1409.65 1978.67 1413.99 1978.95 1418.66H1968.17C1967.61 1413.99 1965.28 1410.07 1961.17 1406.9C1957.06 1403.63 1950.76 1402 1942.27 1402C1937.04 1402 1932.8 1402.51 1929.53 1403.54C1926.26 1404.57 1923.74 1405.92 1921.97 1407.6C1920.29 1409.19 1919.12 1410.87 1918.47 1412.64C1917.91 1414.41 1917.63 1416.09 1917.63 1417.68C1917.63 1420.76 1918.75 1423.28 1920.99 1425.24C1923.32 1427.11 1926.36 1428.69 1930.09 1430C1933.92 1431.21 1938.12 1432.33 1942.69 1433.36C1947.26 1434.39 1951.79 1435.55 1956.27 1436.86C1960.84 1438.07 1965 1439.66 1968.73 1441.62C1972.56 1443.49 1975.59 1445.91 1977.83 1448.9C1980.16 1451.89 1981.33 1455.71 1981.33 1460.38C1981.33 1468.97 1978.06 1475.59 1971.53 1480.26C1965 1484.83 1956.04 1487.12 1944.65 1487.12Z" fill="black"/>
<path d="M860.653 438.931L525 245.285V700.354L860.653 894V438.931Z" fill="#531EAE"/>
<path d="M1531.96 193.646L1196.31 0V455.069L1531.96 648.715V193.646Z" fill="#531EAE"/>
<path d="M860.653 438.931L1196.31 245.285V700.354L860.653 894V438.931Z" fill="#1E1E1E"/>
<path d="M860.653 193.646L1196.31 0V455.069L860.653 648.715V193.646Z" fill="#1E1E1E"/>
</svg>
