<svg width="3117" height="894" viewBox="0 0 3117 894" fill="none" xmlns="http://www.w3.org/2000/svg">
<path d="M1222.7 491L1107.46 206.34H1142.72L1241.19 454.45L1339.66 206.34H1374.92L1259.68 491H1222.7ZM1359 491L1479.83 206.34H1520.25L1641.08 491H1605.39L1570.56 408.44H1429.52L1394.69 491H1359ZM1441.99 378.77H1558.09L1500.04 239.88L1441.99 378.77ZM1677.24 491V206.34H1709.49V460.04H1864.72V491H1677.24ZM1906.52 491V206.34H1938.77V354.69L2097.01 206.34H2142.59L2021.33 320.72L2149.47 491H2109.05L1997.68 342.65L1938.77 397.69V491H1906.52ZM2267.99 491V378.34L2148.45 206.34H2187.58L2283.9 344.8L2380.22 206.34H2419.35L2300.24 378.34V491H2267.99ZM2455.36 491V206.34H2591.67C2620.91 206.34 2644.13 214.367 2661.33 230.42C2678.82 246.473 2687.56 268.117 2687.56 295.35C2687.56 313.697 2683.98 328.317 2676.81 339.21C2669.93 350.103 2661.18 358.417 2650.58 364.15C2639.97 369.597 2629.36 373.61 2618.76 376.19L2693.58 491H2655.31L2586.51 381.78H2487.61V491H2455.36ZM2487.61 351.25H2586.08C2596.4 351.25 2606.86 349.673 2617.47 346.52C2628.08 343.367 2636.96 337.777 2644.13 329.75C2651.58 321.437 2655.31 309.97 2655.31 295.35C2655.31 277.29 2649.14 263.1 2636.82 252.78C2624.49 242.173 2608.15 236.87 2587.8 236.87H2487.61V351.25ZM2743 491V206.34H2775.25V491H2743ZM2845.05 491V206.34H3054.46V237.3H2877.3V332.76H3035.54V364.15H2877.3V460.04H3054.46V491H2845.05Z" fill="black"/>
<path d="M1129.08 691V598.32H1139.58V639.48H1193.48V598.32H1203.98V691H1193.48V649.7H1139.58V691H1129.08ZM1280.45 692.12C1273.45 692.12 1267.06 690.907 1261.27 688.48C1255.49 686.053 1250.49 682.647 1246.29 678.26C1242.19 673.873 1239.01 668.833 1236.77 663.14C1234.53 657.353 1233.41 651.193 1233.41 644.66C1233.41 638.033 1234.53 631.873 1236.77 626.18C1239.01 620.487 1242.19 615.447 1246.29 611.06C1250.49 606.673 1255.49 603.267 1261.27 600.84C1267.06 598.413 1273.45 597.2 1280.45 597.2C1287.45 597.2 1293.85 598.413 1299.63 600.84C1305.42 603.267 1310.37 606.673 1314.47 611.06C1318.67 615.447 1321.89 620.487 1324.13 626.18C1326.37 631.873 1327.49 638.033 1327.49 644.66C1327.49 651.193 1326.37 657.353 1324.13 663.14C1321.89 668.833 1318.67 673.873 1314.47 678.26C1310.37 682.647 1305.42 686.053 1299.63 688.48C1293.85 690.907 1287.45 692.12 1280.45 692.12ZM1280.45 681.9C1288.01 681.9 1294.5 680.267 1299.91 677C1305.42 673.64 1309.62 669.16 1312.51 663.56C1315.5 657.867 1316.99 651.567 1316.99 644.66C1316.99 637.66 1315.5 631.36 1312.51 625.76C1309.62 620.16 1305.42 615.727 1299.91 612.46C1294.5 609.1 1288.01 607.42 1280.45 607.42C1272.99 607.42 1266.5 609.1 1260.99 612.46C1255.49 615.727 1251.24 620.16 1248.25 625.76C1245.36 631.36 1243.91 637.66 1243.91 644.66C1243.91 651.567 1245.36 657.867 1248.25 663.56C1251.24 669.16 1255.49 673.64 1260.99 677C1266.5 680.267 1272.99 681.9 1280.45 681.9ZM1356.89 691V598.32H1369.07L1402.25 642.28L1434.87 598.32H1447.05V691H1436.55V614.28L1402.25 658.38L1367.39 614.28V691H1356.89ZM1482.29 691V598.32H1550.47V608.4H1492.79V639.48H1544.31V649.7H1492.79V680.92H1550.47V691H1482.29ZM1613.24 692.12C1604.09 692.12 1596.67 690.907 1590.98 688.48C1585.29 685.96 1580.99 682.507 1578.1 678.12C1575.3 673.733 1573.67 668.787 1573.2 663.28H1584.12C1584.4 667.76 1585.89 671.4 1588.6 674.2C1591.31 676.907 1594.85 678.913 1599.24 680.22C1603.72 681.527 1608.62 682.18 1613.94 682.18C1621.78 682.18 1627.99 680.827 1632.56 678.12C1637.13 675.32 1639.42 671.213 1639.42 665.8C1639.42 662.533 1638.25 659.92 1635.92 657.96C1633.68 655.907 1630.65 654.227 1626.82 652.92C1623.09 651.613 1618.98 650.447 1614.5 649.42C1610.02 648.3 1605.49 647.133 1600.92 645.92C1596.44 644.707 1592.29 643.167 1588.46 641.3C1584.73 639.433 1581.69 637.053 1579.36 634.16C1577.12 631.173 1576 627.393 1576 622.82C1576 615.26 1578.89 609.1 1584.68 604.34C1590.56 599.58 1599.29 597.2 1610.86 597.2C1619.07 597.2 1625.84 598.46 1631.16 600.98C1636.48 603.407 1640.45 606.627 1643.06 610.64C1645.77 614.653 1647.26 618.993 1647.54 623.66H1636.76C1636.2 618.993 1633.87 615.073 1629.76 611.9C1625.65 608.633 1619.35 607 1610.86 607C1605.63 607 1601.39 607.513 1598.12 608.54C1594.85 609.567 1592.33 610.92 1590.56 612.6C1588.88 614.187 1587.71 615.867 1587.06 617.64C1586.5 619.413 1586.22 621.093 1586.22 622.68C1586.22 625.76 1587.34 628.28 1589.58 630.24C1591.91 632.107 1594.95 633.693 1598.68 635C1602.51 636.213 1606.71 637.333 1611.28 638.36C1615.85 639.387 1620.38 640.553 1624.86 641.86C1629.43 643.073 1633.59 644.66 1637.32 646.62C1641.15 648.487 1644.18 650.913 1646.42 653.9C1648.75 656.887 1649.92 660.713 1649.92 665.38C1649.92 673.967 1646.65 680.593 1640.12 685.26C1633.59 689.833 1624.63 692.12 1613.24 692.12ZM1710.28 691L1749.62 598.32H1762.78L1802.12 691H1790.5L1779.16 664.12H1733.24L1721.9 691H1710.28ZM1737.3 654.46H1775.1L1756.2 609.24L1737.3 654.46ZM1826.49 691V598.32H1838.67L1895.93 676.3V598.32H1906.43V691H1894.25L1836.99 612.74V691H1826.49ZM1941.77 691V598.32H1980.83C1986.34 598.32 1991.61 599.393 1996.65 601.54C2001.78 603.593 2006.36 606.627 2010.37 610.64C2014.38 614.653 2017.56 619.507 2019.89 625.2C2022.22 630.893 2023.39 637.38 2023.39 644.66C2023.39 651.94 2022.22 658.427 2019.89 664.12C2017.56 669.813 2014.38 674.667 2010.37 678.68C2006.36 682.693 2001.78 685.773 1996.65 687.92C1991.61 689.973 1986.34 691 1980.83 691H1941.77ZM1952.27 681.06H1980.41C1987.04 681.06 1992.78 679.38 1997.63 676.02C2002.48 672.66 2006.22 668.227 2008.83 662.72C2011.54 657.213 2012.89 651.193 2012.89 644.66C2012.89 638.033 2011.54 631.967 2008.83 626.46C2006.22 620.953 2002.48 616.567 1997.63 613.3C1992.78 609.94 1987.04 608.26 1980.41 608.26H1952.27V681.06ZM2095.21 691V598.32H2136.93C2146.83 598.32 2154.62 601.027 2160.31 606.44C2166.01 611.76 2168.85 618.993 2168.85 628.14C2168.85 637.287 2166.01 644.567 2160.31 649.98C2154.62 655.3 2146.83 657.96 2136.93 657.96H2105.71V691H2095.21ZM2105.71 648.16H2136.23C2143.51 648.16 2149.02 646.387 2152.75 642.84C2156.49 639.293 2158.35 634.393 2158.35 628.14C2158.35 621.98 2156.49 617.127 2152.75 613.58C2149.02 610.033 2143.51 608.26 2136.23 608.26H2105.71V648.16ZM2195.72 691V598.32H2240.1C2249.62 598.32 2257.18 600.933 2262.78 606.16C2268.48 611.387 2271.32 618.433 2271.32 627.3C2271.32 633.273 2270.16 638.033 2267.82 641.58C2265.58 645.127 2262.74 647.833 2259.28 649.7C2255.83 651.473 2252.38 652.78 2248.92 653.62L2273.28 691H2260.82L2238.42 655.44H2206.22V691H2195.72ZM2206.22 645.5H2238.28C2241.64 645.5 2245.05 644.987 2248.5 643.96C2251.96 642.933 2254.85 641.113 2257.18 638.5C2259.61 635.793 2260.82 632.06 2260.82 627.3C2260.82 621.42 2258.82 616.8 2254.8 613.44C2250.79 609.987 2245.47 608.26 2238.84 608.26H2206.22V645.5ZM2343.13 692.12C2336.13 692.12 2329.74 690.907 2323.95 688.48C2318.17 686.053 2313.17 682.647 2308.97 678.26C2304.87 673.873 2301.69 668.833 2299.45 663.14C2297.21 657.353 2296.09 651.193 2296.09 644.66C2296.09 638.033 2297.21 631.873 2299.45 626.18C2301.69 620.487 2304.87 615.447 2308.97 611.06C2313.17 606.673 2318.17 603.267 2323.95 600.84C2329.74 598.413 2336.13 597.2 2343.13 597.2C2350.13 597.2 2356.53 598.413 2362.31 600.84C2368.1 603.267 2373.05 606.673 2377.15 611.06C2381.35 615.447 2384.57 620.487 2386.81 626.18C2389.05 631.873 2390.17 638.033 2390.17 644.66C2390.17 651.193 2389.05 657.353 2386.81 663.14C2384.57 668.833 2381.35 673.873 2377.15 678.26C2373.05 682.647 2368.1 686.053 2362.31 688.48C2356.53 690.907 2350.13 692.12 2343.13 692.12ZM2343.13 681.9C2350.69 681.9 2357.18 680.267 2362.59 677C2368.1 673.64 2372.3 669.16 2375.19 663.56C2378.18 657.867 2379.67 651.567 2379.67 644.66C2379.67 637.66 2378.18 631.36 2375.19 625.76C2372.3 620.16 2368.1 615.727 2362.59 612.46C2357.18 609.1 2350.69 607.42 2343.13 607.42C2335.67 607.42 2329.18 609.1 2323.67 612.46C2318.17 615.727 2313.92 620.16 2310.93 625.76C2308.04 631.36 2306.59 637.66 2306.59 644.66C2306.59 651.567 2308.04 657.867 2310.93 663.56C2313.92 669.16 2318.17 673.64 2323.67 677C2329.18 680.267 2335.67 681.9 2343.13 681.9ZM2419.57 691V598.32H2461.29C2471.19 598.32 2478.98 601.027 2484.67 606.44C2490.37 611.76 2493.21 618.993 2493.21 628.14C2493.21 637.287 2490.37 644.567 2484.67 649.98C2478.98 655.3 2471.19 657.96 2461.29 657.96H2430.07V691H2419.57ZM2430.07 648.16H2460.59C2467.87 648.16 2473.38 646.387 2477.11 642.84C2480.85 639.293 2482.71 634.393 2482.71 628.14C2482.71 621.98 2480.85 617.127 2477.11 613.58C2473.38 610.033 2467.87 608.26 2460.59 608.26H2430.07V648.16ZM2520.08 691V598.32H2588.26V608.4H2530.58V639.48H2582.1V649.7H2530.58V680.92H2588.26V691H2520.08ZM2617.86 691V598.32H2662.24C2671.76 598.32 2679.32 600.933 2684.92 606.16C2690.61 611.387 2693.46 618.433 2693.46 627.3C2693.46 633.273 2692.29 638.033 2689.96 641.58C2687.72 645.127 2684.87 647.833 2681.42 649.7C2677.97 651.473 2674.51 652.78 2671.06 653.62L2695.42 691H2682.96L2660.56 655.44H2628.36V691H2617.86ZM2628.36 645.5H2660.42C2663.78 645.5 2667.19 644.987 2670.64 643.96C2674.09 642.933 2676.99 641.113 2679.32 638.5C2681.75 635.793 2682.96 632.06 2682.96 627.3C2682.96 621.42 2680.95 616.8 2676.94 613.44C2672.93 609.987 2667.61 608.26 2660.98 608.26H2628.36V645.5ZM2747.07 691V608.26H2714.73V598.32H2789.91V608.26H2757.57V691H2747.07ZM2815.87 691V598.32H2826.37V691H2815.87ZM2861.7 691V598.32H2929.88V608.4H2872.2V639.48H2923.72V649.7H2872.2V680.92H2929.88V691H2861.7ZM2992.65 692.12C2983.5 692.12 2976.08 690.907 2970.39 688.48C2964.7 685.96 2960.4 682.507 2957.51 678.12C2954.71 673.733 2953.08 668.787 2952.61 663.28H2963.53C2963.81 667.76 2965.3 671.4 2968.01 674.2C2970.72 676.907 2974.26 678.913 2978.65 680.22C2983.13 681.527 2988.03 682.18 2993.35 682.18C3001.19 682.18 3007.4 680.827 3011.97 678.12C3016.54 675.32 3018.83 671.213 3018.83 665.8C3018.83 662.533 3017.66 659.92 3015.33 657.96C3013.09 655.907 3010.06 654.227 3006.23 652.92C3002.5 651.613 2998.39 650.447 2993.91 649.42C2989.43 648.3 2984.9 647.133 2980.33 645.92C2975.85 644.707 2971.7 643.167 2967.87 641.3C2964.14 639.433 2961.1 637.053 2958.77 634.16C2956.53 631.173 2955.41 627.393 2955.41 622.82C2955.41 615.26 2958.3 609.1 2964.09 604.34C2969.97 599.58 2978.7 597.2 2990.27 597.2C2998.48 597.2 3005.25 598.46 3010.57 600.98C3015.89 603.407 3019.86 606.627 3022.47 610.64C3025.18 614.653 3026.67 618.993 3026.95 623.66H3016.17C3015.61 618.993 3013.28 615.073 3009.17 611.9C3005.06 608.633 2998.76 607 2990.27 607C2985.04 607 2980.8 607.513 2977.53 608.54C2974.26 609.567 2971.74 610.92 2969.97 612.6C2968.29 614.187 2967.12 615.867 2966.47 617.64C2965.91 619.413 2965.63 621.093 2965.63 622.68C2965.63 625.76 2966.75 628.28 2968.99 630.24C2971.32 632.107 2974.36 633.693 2978.09 635C2981.92 636.213 2986.12 637.333 2990.69 638.36C2995.26 639.387 2999.79 640.553 3004.27 641.86C3008.84 643.073 3013 644.66 3016.73 646.62C3020.56 648.487 3023.59 650.913 3025.83 653.9C3028.16 656.887 3029.33 660.713 3029.33 665.38C3029.33 673.967 3026.06 680.593 3019.53 685.26C3013 689.833 3004.04 692.12 2992.65 692.12Z" fill="black"/>
<path d="M335.654 438.931L0.000846863 245.285V700.354L335.654 894V438.931Z" fill="#531EAE"/>
<path d="M1006.96 193.646L671.307 0V455.069L1006.96 648.715V193.646Z" fill="#531EAE"/>
<path d="M335.654 438.931L671.308 245.285V700.354L335.654 894V438.931Z" fill="#1E1E1E"/>
<path d="M335.654 193.646L671.308 0V455.069L335.654 648.715V193.646Z" fill="#1E1E1E"/>
</svg>
